<svg data-v-423bf9ae="" xmlns="http://www.w3.org/2000/svg" viewBox="0 0 282 107" class="iconLeft"><!----><!----><!----><g data-v-423bf9ae="" id="1731bcde-3b49-4ddb-810d-4f5930539cd7" fill="white" transform="matrix(2.258185863494873,0,0,2.258185863494873,105.41783905029297,23.06180763244629)"><path d="M3.72 7.01L3.72 7.01L3.72 7.01Q4.17 6.99 4.69 7.17L4.69 7.17L4.69 7.17Q5.21 7.36 5.65 7.73L5.65 7.73L5.65 7.73Q6.09 8.11 6.38 8.64L6.38 8.64L6.38 8.64Q6.66 9.17 6.66 9.83L6.66 9.83L6.66 9.83Q6.66 10.58 6.25 11.27L6.25 11.27L6.25 11.27Q5.84 11.96 5.15 12.52L5.15 12.52L5.15 12.52Q4.45 13.08 3.56 13.47L3.56 13.47L3.56 13.47Q2.67 13.87 1.71 14.06L1.71 14.06L1.71 14.06Q1.71 14.07 1.68 14.62L1.68 14.62L1.68 14.62Q1.65 15.18 1.60 16.06L1.60 16.06L1.60 16.06Q1.54 16.94 1.48 18.07L1.48 18.07L1.48 18.07Q1.41 19.19 1.34 20.37L1.34 20.37L1.34 20.37Q1.19 23.13 0.99 26.61L0.99 26.61L0.99 26.61Q0.81 23.94 0.67 21.53L0.67 21.53L0.67 21.53Q0.62 20.51 0.56 19.43L0.56 19.43L0.56 19.43Q0.50 18.35 0.46 17.35L0.46 17.35L0.46 17.35Q0.42 16.34 0.39 15.47L0.39 15.47L0.39 15.47Q0.36 14.60 0.36 13.99L0.36 13.99L0.36 11.19L0.36 11.19Q0.36 10.35 0.29 9.82L0.29 9.82L0.29 9.82Q0.21 9.30 0.10 8.99L0.10 8.99L0.10 8.99Q-0.01 8.68-0.14 8.53L-0.14 8.53L-0.14 8.53Q-0.27 8.39-0.36 8.30L-0.36 8.30L-0.36 8.30Q-0.49 8.19-0.67 8.15L-0.67 8.15L-0.67 8.15Q-0.84 8.11-1.01 8.11L-1.01 8.11L-1.01 8.11Q-1.20 8.11-1.40 8.16L-1.40 8.16L-1.40 8.16Q-1.01 8.02-0.63 7.84L-0.63 7.84L-0.63 7.84Q-0.31 7.69 0.04 7.48L0.04 7.48L0.04 7.48Q0.39 7.27 0.67 7.01L0.67 7.01L0.67 7.01Q1.25 7.01 1.48 7.67L1.48 7.67L1.48 7.67Q1.62 7.91 1.62 8.69L1.62 8.69L1.62 8.69Q1.83 8.51 2.10 8.29L2.10 8.29L2.10 8.29Q2.37 8.06 2.65 7.83L2.65 7.83L2.65 7.83Q2.93 7.60 3.20 7.38L3.20 7.38L3.20 7.38Q3.47 7.17 3.72 7.01ZM1.71 13.83L1.71 13.83L1.71 13.83Q2.31 13.71 2.91 13.43L2.91 13.43L2.91 13.43Q3.51 13.16 4.00 12.74L4.00 12.74L4.00 12.74Q4.48 12.32 4.78 11.75L4.78 11.75L4.78 11.75Q5.08 11.19 5.08 10.46L5.08 10.46L5.08 10.46Q5.08 9.91 4.79 9.52L4.79 9.52L4.79 9.52Q4.51 9.13 4.11 8.88L4.11 8.88L4.11 8.88Q3.71 8.62 3.29 8.50L3.29 8.50L3.29 8.50Q2.87 8.39 2.60 8.39L2.60 8.39L2.60 8.39Q2.30 8.39 2.06 8.58L2.06 8.58L2.06 8.58Q1.83 8.78 1.71 9.02L1.71 9.02L1.71 9.02Q1.74 9.44 1.74 9.97L1.74 9.97L1.74 9.97Q1.75 10.50 1.74 11.12L1.74 11.12L1.74 11.12Q1.74 11.73 1.72 12.42L1.72 12.42L1.72 12.42Q1.71 13.10 1.71 13.83ZM12.98 12.49L12.98 12.49L12.98 12.49Q13.38 12.49 13.74 12.38L13.74 12.38L13.74 12.38Q14.10 12.28 14.36 12.14L14.36 12.14L14.36 12.14Q14.67 11.98 14.94 11.79L14.94 11.79L14.94 11.79Q14.56 12.42 14.03 12.91L14.03 12.91L14.03 12.91Q13.58 13.33 12.90 13.67L12.90 13.67L12.90 13.67Q12.22 14.01 11.33 14.01L11.33 14.01L11.33 14.01Q10.68 14.01 10.09 13.79L10.09 13.79L10.09 13.79Q9.51 13.57 9.05 13.15L9.05 13.15L9.05 13.15Q8.60 12.73 8.33 12.12L8.33 12.12L8.33 12.12Q8.06 11.51 8.06 10.75L8.06 10.75L8.06 10.75Q8.06 10.07 8.28 9.54L8.28 9.54L8.28 9.54Q8.50 9.02 8.85 8.62L8.85 8.62L8.85 8.62Q9.20 8.23 9.63 7.97L9.63 7.97L9.63 7.97Q10.07 7.71 10.49 7.55L10.49 7.55L10.49 7.55Q11.83 7 12.32 7L12.32 7L12.32 7Q12.84 7 13.22 7.17L13.22 7.17L13.22 7.17Q13.61 7.35 13.89 7.56L13.89 7.56L13.89 7.56Q14.20 7.81 14.43 8.12L14.43 8.12L9.81 9.98L9.81 9.98Q9.91 10.57 10.09 11.03L10.09 11.03L10.09 11.03Q10.28 11.49 10.63 11.82L10.63 11.82L10.63 11.82Q10.98 12.14 11.54 12.31L11.54 12.31L11.54 12.31Q12.10 12.49 12.98 12.49ZM10.71 7.81L10.71 7.81L10.71 7.81Q10.51 7.81 10.33 7.92L10.33 7.92L10.33 7.92Q10.15 8.02 10.00 8.19L10.00 8.19L10.00 8.19Q9.86 8.36 9.78 8.57L9.78 8.57L9.78 8.57Q9.70 8.78 9.72 8.99L9.72 8.99L9.72 8.99Q9.72 9.21 9.72 9.42L9.72 9.42L9.72 9.42Q9.73 9.63 9.77 9.84L9.77 9.84L12.12 8.76L12.12 8.76Q11.98 8.50 11.77 8.29L11.77 8.29L11.77 8.29Q11.59 8.11 11.33 7.96L11.33 7.96L11.33 7.96Q11.06 7.81 10.71 7.81ZM14.14 3.33L14.14 3.33L14.14 3.33Q14.14 2.83 14.54 2.33L14.54 2.33L14.54 2.33Q14.94 1.83 15.56 1.39L15.56 1.39L15.56 1.39Q16.18 0.95 16.94 0.60L16.94 0.60L16.94 0.60Q17.70 0.25 18.40 0.04L18.40 0.04L18.40 0.04Q17.86 0.21 17.37 0.48L17.37 0.48L17.37 0.48Q16.88 0.74 16.51 1.06L16.51 1.06L16.51 1.06Q16.13 1.37 15.90 1.71L15.90 1.71L15.90 1.71Q15.67 2.06 15.67 2.38L15.67 2.38L15.67 2.38Q15.67 2.76 15.91 3.18L15.91 3.18L15.91 3.18Q16.16 3.60 16.54 4.03L16.54 4.03L16.54 4.03Q16.93 4.45 17.41 4.86L17.41 4.86L17.41 4.86Q17.89 5.26 18.38 5.61L18.38 5.61L18.38 5.61Q18.86 5.95 19.29 6.22L19.29 6.22L19.29 6.22Q19.71 6.50 20.01 6.64L20.01 6.64L20.01 6.64Q20.29 6.78 20.65 6.92L20.65 6.92L20.65 6.92Q21.01 7.07 21.40 7.26L21.40 7.26L21.40 7.26Q21.78 7.45 22.16 7.69L22.16 7.69L22.16 7.69Q22.54 7.94 22.83 8.27L22.83 8.27L22.83 8.27Q23.13 8.61 23.31 9.04L23.31 9.04L23.31 9.04Q23.49 9.48 23.49 10.05L23.49 10.05L23.49 10.05Q23.49 10.51 23.35 10.91L23.35 10.91L23.35 10.91Q23.21 11.30 22.97 11.63L22.97 11.63L22.97 11.63Q22.74 11.97 22.44 12.26L22.44 12.26L22.44 12.26Q22.13 12.54 21.80 12.81L21.80 12.81L21.80 12.81Q21.13 13.34 20.51 13.68L20.51 13.68L20.51 13.68Q19.89 14.01 19.24 14.01L19.24 14.01L19.24 14.01Q18.69 14.01 18.23 13.79L18.23 13.79L18.23 13.79Q17.77 13.57 17.44 13.21L17.44 13.21L17.44 13.21Q17.12 12.85 16.94 12.41L16.94 12.41L16.94 12.41Q16.76 11.97 16.76 11.54L16.76 11.54L16.76 11.54Q16.76 10.92 16.90 10.51L16.90 10.51L16.90 10.51Q17.04 10.09 17.27 9.81L17.27 9.81L17.27 9.81Q17.50 9.53 17.79 9.34L17.79 9.34L17.79 9.34Q18.09 9.14 18.40 8.96L18.40 8.96L18.40 8.96Q18.68 8.74 18.96 8.57L18.96 8.57L18.96 8.57Q19.25 8.40 19.59 8.29L19.59 8.29L19.59 8.29Q19.08 8.04 18.61 7.78L18.61 7.78L18.61 7.78Q18.13 7.52 17.77 7.24L17.77 7.24L17.77 7.24Q17.50 7.06 17.13 6.80L17.13 6.80L17.13 6.80Q16.76 6.55 16.36 6.25L16.36 6.25L16.36 6.25Q15.96 5.95 15.56 5.60L15.56 5.60L15.56 5.60Q15.16 5.25 14.85 4.88L14.85 4.88L14.85 4.88Q14.53 4.51 14.34 4.12L14.34 4.12L14.34 4.12Q14.14 3.72 14.14 3.33ZM21.92 10.91L21.92 10.91L21.92 10.91Q21.92 10.47 21.75 10.12L21.75 10.12L21.75 10.12Q21.57 9.76 21.28 9.46L21.28 9.46L21.28 9.46Q20.99 9.16 20.59 8.90L20.59 8.90L20.59 8.90Q20.20 8.65 19.77 8.43L19.77 8.43L19.77 8.43Q19.52 8.47 19.24 8.62L19.24 8.62L19.24 8.62Q18.97 8.76 18.75 9.00L18.75 9.00L18.75 9.00Q18.54 9.24 18.39 9.55L18.39 9.55L18.39 9.55Q18.24 9.87 18.24 10.25L18.24 10.25L18.24 10.25Q18.24 10.70 18.41 11.12L18.41 11.12L18.41 11.12Q18.58 11.55 18.90 11.89L18.90 11.89L18.90 11.89Q19.22 12.22 19.69 12.43L19.69 12.43L19.69 12.43Q20.16 12.63 20.78 12.63L20.78 12.63L20.78 12.63Q21.25 12.63 21.50 12.51L21.50 12.51L21.50 12.51Q21.74 12.39 21.83 12.17L21.83 12.17L21.83 12.17Q21.92 11.94 21.92 11.62L21.92 11.62L21.92 11.62Q21.92 11.30 21.92 10.91ZM29.13 7.06L29.13 7.06L29.13 7.06Q29.34 7.06 29.58 7.07L29.58 7.07L29.58 7.07Q29.82 7.08 29.97 7.15L29.97 7.15L29.97 7.15Q29.82 7.36 29.68 7.69L29.68 7.69L29.68 7.69Q29.54 8.01 29.43 8.30L29.43 8.30L29.43 8.30Q29.29 8.67 29.18 9.03L29.18 9.03L29.18 9.03Q29.08 8.97 28.92 8.92L28.92 8.92L28.92 8.92Q28.80 8.88 28.61 8.83L28.61 8.83L28.61 8.83Q28.42 8.79 28.15 8.79L28.15 8.79L28.15 8.79Q27.73 8.79 27.46 9.02L27.46 9.02L27.46 9.02Q27.19 9.25 27.02 9.63L27.02 9.63L27.02 9.63Q26.85 10.00 26.76 10.44L26.76 10.44L26.76 10.44Q26.67 10.89 26.63 11.31L26.63 11.31L26.63 11.31Q26.63 12.12 26.65 12.57L26.65 12.57L26.65 12.57Q26.67 13.02 26.67 13.30L26.67 13.30L26.67 13.30Q26.49 13.34 26.27 13.42L26.27 13.42L26.27 13.42Q26.05 13.50 25.83 13.60L25.83 13.60L25.83 13.60Q25.61 13.71 25.39 13.81L25.39 13.81L25.39 13.81Q25.17 13.92 25.00 14.01L25.00 14.01L25.00 14.01Q25.07 13.38 25.12 12.71L25.12 12.71L25.12 12.71Q25.17 12.04 25.19 11.40L25.19 11.40L25.19 11.40Q25.21 10.75 25.19 10.17L25.19 10.17L25.19 10.17Q25.17 9.59 25.11 9.15L25.11 9.15L25.11 9.15Q25.05 8.71 24.95 8.43L24.95 8.43L24.95 8.43Q24.85 8.16 24.71 8.13L24.71 8.13L24.71 8.13Q24.64 8.12 24.56 8.12L24.56 8.12L24.56 8.12Q24.47 8.12 24.39 8.12L24.39 8.12L24.39 8.12Q24.29 8.12 24.19 8.13L24.19 8.13L24.19 8.13Q24.57 8.01 24.95 7.84L24.95 7.84L24.95 7.84Q25.27 7.69 25.66 7.48L25.66 7.48L25.66 7.48Q26.05 7.28 26.42 7.01L26.42 7.01L26.42 7.01Q26.46 7.20 26.49 7.51L26.49 7.51L26.49 7.51Q26.52 7.83 26.54 8.22L26.54 8.22L26.54 8.22Q26.57 8.62 26.59 9.07L26.59 9.07L26.59 9.07Q26.60 9.52 26.63 9.95L26.63 9.95L26.63 9.95Q26.84 9.48 27.12 8.97L27.12 8.97L27.12 8.97Q27.40 8.46 27.72 8.03L27.72 8.03L27.72 8.03Q28.04 7.60 28.41 7.33L28.41 7.33L28.41 7.33Q28.77 7.06 29.13 7.06ZM31.19 9.66L31.19 9.66L31.19 9.66Q31.19 10.08 31.35 10.59L31.35 10.59L31.35 10.59Q31.51 11.10 31.89 11.54L31.89 11.54L31.89 11.54Q32.27 11.98 32.88 12.29L32.88 12.29L32.88 12.29Q33.49 12.59 34.37 12.59L34.37 12.59L34.37 12.59Q34.83 12.59 35.10 12.46L35.10 12.46L35.10 12.46Q35.36 12.33 35.49 12.14L35.49 12.14L35.49 12.14Q35.62 11.96 35.65 11.75L35.65 11.75L35.65 11.75Q35.69 11.54 35.69 11.35L35.69 11.35L35.69 11.35Q35.69 10.75 35.46 10.16L35.46 10.16L35.46 10.16Q35.22 9.58 34.82 9.11L34.82 9.11L34.82 9.11Q34.41 8.65 33.86 8.37L33.86 8.37L33.86 8.37Q33.31 8.09 32.66 8.09L32.66 8.09L32.66 8.09Q32.24 8.09 31.96 8.25L31.96 8.25L31.96 8.25Q31.68 8.41 31.51 8.66L31.51 8.66L31.51 8.66Q31.33 8.90 31.26 9.18L31.26 9.18L31.26 9.18Q31.19 9.45 31.19 9.66ZM34.27 7L34.27 7L34.27 7Q34.69 7 35.18 7.18L35.18 7.18L35.18 7.18Q35.66 7.36 36.07 7.73L36.07 7.73L36.07 7.73Q36.48 8.09 36.75 8.66L36.75 8.66L36.75 8.66Q37.02 9.23 37.02 9.98L37.02 9.98L37.02 9.98Q37.02 10.42 36.81 10.88L36.81 10.88L36.81 10.88Q36.61 11.34 36.28 11.79L36.28 11.79L36.28 11.79Q35.95 12.24 35.53 12.63L35.53 12.63L35.53 12.63Q35.10 13.03 34.64 13.34L34.64 13.34L34.64 13.34Q34.19 13.64 33.73 13.82L33.73 13.82L33.73 13.82Q33.28 14 32.90 14L32.90 14L32.90 14Q32.33 14 31.80 13.76L31.80 13.76L31.80 13.76Q31.28 13.52 30.87 13.12L30.87 13.12L30.87 13.12Q30.46 12.71 30.22 12.19L30.22 12.19L30.22 12.19Q29.97 11.66 29.97 11.07L29.97 11.07L29.97 11.07Q29.97 10.28 30.41 9.54L30.41 9.54L30.41 9.54Q30.84 8.81 31.49 8.24L31.49 8.24L31.49 8.24Q32.13 7.67 32.88 7.34L32.88 7.34L32.88 7.34Q33.63 7 34.27 7ZM42.22 7L42.22 7L42.22 7Q42.39 7.20 42.69 7.39L42.69 7.39L42.69 7.39Q42.98 7.59 43.30 7.75L43.30 7.75L43.30 7.75Q43.62 7.91 43.94 8.02L43.94 8.02L43.94 8.02Q44.25 8.12 44.49 8.12L44.49 8.12L44.49 8.12Q44.28 8.26 44.02 8.41L44.02 8.41L44.02 8.41Q43.76 8.55 43.53 8.69L43.53 8.69L43.53 8.69Q43.30 8.82 43.13 8.92L43.13 8.92L43.13 8.92Q42.95 9.02 42.88 9.07L42.88 9.07L42.88 9.07Q42.69 9.10 42.38 9.03L42.38 9.03L42.38 9.03Q42.07 8.96 41.74 8.83L41.74 8.83L41.74 8.83Q41.41 8.71 41.12 8.57L41.12 8.57L41.12 8.57Q40.82 8.43 40.67 8.32L40.67 8.32L40.67 8.32Q40.54 8.40 40.41 8.55L40.41 8.55L40.41 8.55Q40.28 8.71 40.17 8.92L40.17 8.92L40.17 8.92Q40.05 9.13 39.98 9.38L39.98 9.38L39.98 9.38Q39.91 9.63 39.91 9.91L39.91 9.91L39.91 9.91Q39.91 10.54 40.23 11.02L40.23 11.02L40.23 11.02Q40.54 11.49 41.00 11.81L41.00 11.81L41.00 11.81Q41.45 12.12 41.97 12.29L41.97 12.29L41.97 12.29Q42.48 12.45 42.88 12.45L42.88 12.45L42.88 12.45Q43.43 12.45 43.86 12.34L43.86 12.34L43.86 12.34Q44.30 12.24 44.60 12.10L44.60 12.10L44.60 12.10Q44.97 11.94 45.23 11.75L45.23 11.75L45.23 11.75Q44.94 12.01 44.56 12.40L44.56 12.40L44.56 12.40Q44.17 12.78 43.72 13.14L43.72 13.14L43.72 13.14Q43.26 13.50 42.72 13.75L42.72 13.75L42.72 13.75Q42.18 14 41.57 14L41.57 14L41.57 14Q40.87 14 40.29 13.74L40.29 13.74L40.29 13.74Q39.70 13.48 39.29 13.05L39.29 13.05L39.29 13.05Q38.88 12.63 38.65 12.08L38.65 12.08L38.65 12.08Q38.42 11.54 38.42 10.95L38.42 10.95L38.42 10.95Q38.42 10.42 38.65 9.97L38.65 9.97L38.65 9.97Q38.88 9.52 39.24 9.14L39.24 9.14L39.24 9.14Q39.59 8.76 40.03 8.45L40.03 8.45L40.03 8.45Q40.47 8.13 40.90 7.87L40.90 7.87L40.90 7.87Q41.33 7.60 41.68 7.39L41.68 7.39L41.68 7.39Q42.03 7.18 42.22 7ZM47.85 9.66L47.85 9.66L47.85 9.66Q47.85 10.08 48.01 10.59L48.01 10.59L48.01 10.59Q48.17 11.10 48.55 11.54L48.55 11.54L48.55 11.54Q48.93 11.98 49.54 12.29L49.54 12.29L49.54 12.29Q50.15 12.59 51.03 12.59L51.03 12.59L51.03 12.59Q51.49 12.59 51.76 12.46L51.76 12.46L51.76 12.46Q52.02 12.33 52.15 12.14L52.15 12.14L52.15 12.14Q52.28 11.96 52.31 11.75L52.31 11.75L52.31 11.75Q52.35 11.54 52.35 11.35L52.35 11.35L52.35 11.35Q52.35 10.75 52.12 10.16L52.12 10.16L52.12 10.16Q51.88 9.58 51.48 9.11L51.48 9.11L51.48 9.11Q51.07 8.65 50.52 8.37L50.52 8.37L50.52 8.37Q49.97 8.09 49.32 8.09L49.32 8.09L49.32 8.09Q48.90 8.09 48.62 8.25L48.62 8.25L48.62 8.25Q48.34 8.41 48.17 8.66L48.17 8.66L48.17 8.66Q47.99 8.90 47.92 9.18L47.92 9.18L47.92 9.18Q47.85 9.45 47.85 9.66ZM50.93 7L50.93 7L50.93 7Q51.35 7 51.84 7.18L51.84 7.18L51.84 7.18Q52.32 7.36 52.73 7.73L52.73 7.73L52.73 7.73Q53.14 8.09 53.41 8.66L53.41 8.66L53.41 8.66Q53.68 9.23 53.68 9.98L53.68 9.98L53.68 9.98Q53.68 10.42 53.47 10.88L53.47 10.88L53.47 10.88Q53.27 11.34 52.94 11.79L52.94 11.79L52.94 11.79Q52.61 12.24 52.19 12.63L52.19 12.63L52.19 12.63Q51.76 13.03 51.30 13.34L51.30 13.34L51.30 13.34Q50.85 13.64 50.39 13.82L50.39 13.82L50.39 13.82Q49.94 14 49.56 14L49.56 14L49.56 14Q48.99 14 48.46 13.76L48.46 13.76L48.46 13.76Q47.94 13.52 47.53 13.12L47.53 13.12L47.53 13.12Q47.12 12.71 46.88 12.19L46.88 12.19L46.88 12.19Q46.63 11.66 46.63 11.07L46.63 11.07L46.63 11.07Q46.63 10.28 47.07 9.54L47.07 9.54L47.07 9.54Q47.50 8.81 48.15 8.24L48.15 8.24L48.15 8.24Q48.79 7.67 49.54 7.34L49.54 7.34L49.54 7.34Q50.29 7 50.93 7ZM52.88 3.33L52.88 3.33L52.88 3.33Q52.88 2.83 53.28 2.33L53.28 2.33L53.28 2.33Q53.68 1.83 54.30 1.39L54.30 1.39L54.30 1.39Q54.92 0.95 55.68 0.60L55.68 0.60L55.68 0.60Q56.43 0.25 57.13 0.04L57.13 0.04L57.13 0.04Q56.60 0.21 56.11 0.48L56.11 0.48L56.11 0.48Q55.62 0.74 55.24 1.06L55.24 1.06L55.24 1.06Q54.87 1.37 54.63 1.71L54.63 1.71L54.63 1.71Q54.40 2.06 54.40 2.38L54.40 2.38L54.40 2.38Q54.40 2.76 54.65 3.18L54.65 3.18L54.65 3.18Q54.89 3.60 55.28 4.03L55.28 4.03L55.28 4.03Q55.66 4.45 56.15 4.86L56.15 4.86L56.15 4.86Q56.63 5.26 57.11 5.61L57.11 5.61L57.11 5.61Q57.60 5.95 58.02 6.22L58.02 6.22L58.02 6.22Q58.45 6.50 58.74 6.64L58.74 6.64L58.74 6.64Q59.02 6.78 59.39 6.92L59.39 6.92L59.39 6.92Q59.75 7.07 60.14 7.26L60.14 7.26L60.14 7.26Q60.52 7.45 60.90 7.69L60.90 7.69L60.90 7.69Q61.28 7.94 61.57 8.27L61.57 8.27L61.57 8.27Q61.87 8.61 62.05 9.04L62.05 9.04L62.05 9.04Q62.23 9.48 62.23 10.05L62.23 10.05L62.23 10.05Q62.23 10.51 62.09 10.91L62.09 10.91L62.09 10.91Q61.95 11.30 61.71 11.63L61.71 11.63L61.71 11.63Q61.47 11.97 61.17 12.26L61.17 12.26L61.17 12.26Q60.87 12.54 60.54 12.81L60.54 12.81L60.54 12.81Q59.86 13.34 59.25 13.68L59.25 13.68L59.25 13.68Q58.63 14.01 57.97 14.01L57.97 14.01L57.97 14.01Q57.43 14.01 56.97 13.79L56.97 13.79L56.97 13.79Q56.50 13.57 56.18 13.21L56.18 13.21L56.18 13.21Q55.86 12.85 55.68 12.41L55.68 12.41L55.68 12.41Q55.50 11.97 55.50 11.54L55.50 11.54L55.50 11.54Q55.50 10.92 55.64 10.51L55.64 10.51L55.64 10.51Q55.78 10.09 56.01 9.81L56.01 9.81L56.01 9.81Q56.24 9.53 56.53 9.34L56.53 9.34L56.53 9.34Q56.83 9.14 57.13 8.96L57.13 8.96L57.13 8.96Q57.41 8.74 57.70 8.57L57.70 8.57L57.70 8.57Q57.99 8.40 58.32 8.29L58.32 8.29L58.32 8.29Q57.82 8.04 57.34 7.78L57.34 7.78L57.34 7.78Q56.87 7.52 56.50 7.24L56.50 7.24L56.50 7.24Q56.24 7.06 55.87 6.80L55.87 6.80L55.87 6.80Q55.50 6.55 55.10 6.25L55.10 6.25L55.10 6.25Q54.70 5.95 54.30 5.60L54.30 5.60L54.30 5.60Q53.90 5.25 53.59 4.88L53.59 4.88L53.59 4.88Q53.27 4.51 53.07 4.12L53.07 4.12L53.07 4.12Q52.88 3.72 52.88 3.33ZM60.66 10.91L60.66 10.91L60.66 10.91Q60.66 10.47 60.49 10.12L60.49 10.12L60.49 10.12Q60.31 9.76 60.02 9.46L60.02 9.46L60.02 9.46Q59.72 9.16 59.33 8.90L59.33 8.90L59.33 8.90Q58.94 8.65 58.51 8.43L58.51 8.43L58.51 8.43Q58.25 8.47 57.98 8.62L57.98 8.62L57.98 8.62Q57.71 8.76 57.49 9.00L57.49 9.00L57.49 9.00Q57.27 9.24 57.13 9.55L57.13 9.55L57.13 9.55Q56.98 9.87 56.98 10.25L56.98 10.25L56.98 10.25Q56.98 10.70 57.15 11.12L57.15 11.12L57.15 11.12Q57.32 11.55 57.64 11.89L57.64 11.89L57.64 11.89Q57.96 12.22 58.43 12.43L58.43 12.43L58.43 12.43Q58.90 12.63 59.51 12.63L59.51 12.63L59.51 12.63Q59.99 12.63 60.23 12.51L60.23 12.51L60.23 12.51Q60.48 12.39 60.57 12.17L60.57 12.17L60.57 12.17Q60.66 11.94 60.66 11.62L60.66 11.62L60.66 11.62Q60.66 11.30 60.66 10.91ZM68.54 12.49L68.54 12.49L68.54 12.49Q68.95 12.49 69.31 12.38L69.31 12.38L69.31 12.38Q69.66 12.28 69.93 12.14L69.93 12.14L69.93 12.14Q70.24 11.98 70.50 11.79L70.50 11.79L70.50 11.79Q70.13 12.42 69.59 12.91L69.59 12.91L69.59 12.91Q69.15 13.33 68.47 13.67L68.47 13.67L68.47 13.67Q67.79 14.01 66.89 14.01L66.89 14.01L66.89 14.01Q66.25 14.01 65.66 13.79L65.66 13.79L65.66 13.79Q65.07 13.57 64.62 13.15L64.62 13.15L64.62 13.15Q64.16 12.73 63.90 12.12L63.90 12.12L63.90 12.12Q63.63 11.51 63.63 10.75L63.63 10.75L63.63 10.75Q63.63 10.07 63.85 9.54L63.85 9.54L63.85 9.54Q64.06 9.02 64.41 8.62L64.41 8.62L64.41 8.62Q64.76 8.23 65.20 7.97L65.20 7.97L65.20 7.97Q65.63 7.71 66.05 7.55L66.05 7.55L66.05 7.55Q67.40 7 67.89 7L67.89 7L67.89 7Q68.40 7 68.79 7.17L68.79 7.17L68.79 7.17Q69.17 7.35 69.45 7.56L69.45 7.56L69.45 7.56Q69.76 7.81 70 8.12L70 8.12L65.38 9.98L65.38 9.98Q65.48 10.57 65.66 11.03L65.66 11.03L65.66 11.03Q65.84 11.49 66.19 11.82L66.19 11.82L66.19 11.82Q66.54 12.14 67.10 12.31L67.10 12.31L67.10 12.31Q67.66 12.49 68.54 12.49ZM66.28 7.81L66.28 7.81L66.28 7.81Q66.08 7.81 65.90 7.92L65.90 7.92L65.90 7.92Q65.72 8.02 65.57 8.19L65.57 8.19L65.57 8.19Q65.42 8.36 65.34 8.57L65.34 8.57L65.34 8.57Q65.27 8.78 65.28 8.99L65.28 8.99L65.28 8.99Q65.28 9.21 65.29 9.42L65.29 9.42L65.29 9.42Q65.30 9.63 65.34 9.84L65.34 9.84L67.69 8.76L67.69 8.76Q67.55 8.50 67.34 8.29L67.34 8.29L67.34 8.29Q67.16 8.11 66.89 7.96L66.89 7.96L66.89 7.96Q66.63 7.81 66.28 7.81ZM74.48 10.86L74.48 10.86L74.48 10.86Q74.21 10.86 73.83 10.81L73.83 10.81L73.83 10.81Q73.44 10.75 73.09 10.58L73.09 10.58L73.09 10.58Q72.73 10.40 72.48 10.08L72.48 10.08L72.48 10.08Q72.23 9.76 72.23 9.23L72.23 9.23L72.23 9.23Q72.23 8.81 72.44 8.48L72.44 8.48L72.44 8.48Q72.66 8.15 73.00 7.90L73.00 7.90L73.00 7.90Q73.33 7.64 73.75 7.48L73.75 7.48L73.75 7.48Q74.17 7.31 74.56 7.20L74.56 7.20L74.56 7.20Q74.96 7.08 75.28 7.04L75.28 7.04L75.28 7.04Q75.61 6.99 75.78 6.99L75.78 6.99L75.78 6.99Q75.91 6.99 76.10 6.99L76.10 6.99L76.10 6.99Q76.29 7 76.47 7.02L76.47 7.02L76.47 7.02Q76.66 7.04 76.84 7.06L76.84 7.06L76.84 7.06Q77.01 7.08 77.10 7.13L77.10 7.13L77.10 7.13Q77.04 7.31 76.98 7.54L76.98 7.54L76.98 7.54Q76.92 7.77 76.86 8.02L76.86 8.02L76.86 8.02Q76.80 8.26 76.77 8.50L76.77 8.50L76.77 8.50Q76.73 8.75 76.73 8.96L76.73 8.96L76.73 8.96Q76.64 8.75 76.47 8.50L76.47 8.50L76.47 8.50Q76.30 8.26 76.07 8.04L76.07 8.04L76.07 8.04Q75.84 7.83 75.54 7.69L75.54 7.69L75.54 7.69Q75.25 7.55 74.90 7.55L74.90 7.55L74.90 7.55Q74.63 7.55 74.43 7.63L74.43 7.63L74.43 7.63Q74.23 7.71 74.08 7.85L74.08 7.85L74.08 7.85Q73.93 7.99 73.86 8.16L73.86 8.16L73.86 8.16Q73.78 8.32 73.78 8.47L73.78 8.47L73.78 8.47Q73.78 8.79 73.93 9.04L73.93 9.04L73.93 9.04Q74.09 9.28 74.34 9.45L74.34 9.45L74.34 9.45Q74.59 9.62 74.92 9.70L74.92 9.70L74.92 9.70Q75.25 9.79 75.60 9.79L75.60 9.79L75.60 9.79Q76.17 9.79 76.59 9.90L76.59 9.90L76.59 9.90Q77 10.01 77.26 10.19L77.26 10.19L77.26 10.19Q77.52 10.37 77.64 10.61L77.64 10.61L77.64 10.61Q77.76 10.84 77.76 11.06L77.76 11.06L77.76 11.06Q77.76 11.80 77.34 12.36L77.34 12.36L77.34 12.36Q76.93 12.91 76.33 13.27L76.33 13.27L76.33 13.27Q75.74 13.64 75.09 13.82L75.09 13.82L75.09 13.82Q74.44 14 73.96 14L73.96 14L73.96 14Q73.25 14 72.69 13.82L72.69 13.82L72.69 13.82Q72.13 13.64 71.90 13.44L71.90 13.44L71.90 13.44Q72.06 13.20 72.17 12.77L72.17 12.77L72.17 12.77Q72.28 12.33 72.32 11.76L72.32 11.76L72.32 11.76Q72.51 12.11 72.81 12.40L72.81 12.40L72.81 12.40Q73.12 12.68 73.50 12.88L73.50 12.88L73.50 12.88Q73.88 13.08 74.30 13.19L74.30 13.19L74.30 13.19Q74.73 13.30 75.18 13.30L75.18 13.30L75.18 13.30Q75.33 13.30 75.53 13.26L75.53 13.26L75.53 13.26Q75.73 13.22 75.89 13.12L75.89 13.12L75.89 13.12Q76.06 13.02 76.18 12.85L76.18 12.85L76.18 12.85Q76.30 12.68 76.30 12.42L76.30 12.42L76.30 12.42Q76.30 12.17 76.17 11.89L76.17 11.89L76.17 11.89Q76.05 11.62 75.81 11.39L75.81 11.39L75.81 11.39Q75.57 11.16 75.24 11.01L75.24 11.01L75.24 11.01Q74.90 10.86 74.48 10.86Z"></path></g><!----><g data-v-423bf9ae="" id="2847a0bc-d8cb-4838-9cae-e5c936504676" transform="matrix(1.0868111848831177,0,0,1.0868111848831177,-13.255263328552246,-0.23894432187080383)" stroke="none" fill="white" style="--darkreader-inline-stroke:none;" data-darkreader-inline-stroke=""><g clip-rule="evenodd"><path d="M12.983 10.59l17.018 88.223-5.872-59.049 29.021-1.892-.054-9.883L64.549 1 53.622 18.977z"></path><path d="M59.389 54.548l5.16-53.541-8.74 39.716-19.612 1.045 1.57 20.462-7.766 36.583 12.057-39.899z"></path><path d="M62.8 67.182l.549-10.453-15.979 3.755-.032 11.797-17.337 26.532 21.68-27.616zM65.711 62.394l14.841-4.731 1.509-12.532-15.899 2.095zM72.07 44.502l10.988-1.417 1.581-10.278-8.079-.373L64.549 1l8.43 30.967z"></path><path d="M87.413 31.294l1.256-9.506-9.544-2.694L64.549 1l14.483 22.437-.422 7z"></path></g></g><!----></svg>